{"scene":0,"asset":{"generator":"ImageToStl.com","version":"2.0"},"scenes":[{"name":"Scene","nodes":[0]}],"nodes":[{"name":"Node0","children":[1,2,3,4]},{"name":"Node1","mesh":0},{"name":"Node2","mesh":1},{"name":"Node3","mesh":2},{"name":"Node4","mesh":3}],"materials":[{"name":"Material.001","pbrMetallicRoughness":{"baseColorFactor":[0.335414,0.0,0.001474,1.0],"metallicFactor":0.5,"roughnessFactor":0.75},"emissiveFactor":[0.0,0.0,0.0],"doubleSided":true},{"name":"Material.002","pbrMetallicRoughness":{"baseColorFactor":[0.80263,0.608416,0.385172,1.0],"metallicFactor":0.5,"roughnessFactor":0.75},"emissiveFactor":[0.0,0.0,0.0],"doubleSided":true},{"name":"Material.004","pbrMetallicRoughness":{"baseColorFactor":[1.0,0.964227,0.990998,1.0],"metallicFactor":0.5,"roughnessFactor":0.75},"emissiveFactor":[0.0,0.0,0.0],"doubleSided":true},{"name":"Material.003","pbrMetallicRoughness":{"baseColorFactor":[0.741532,0.741532,0.741532,1.0],"metallicFactor":0.5,"roughnessFactor":0.75},"emissiveFactor":[0.0,0.0,0.0],"doubleSided":true},{"name":"Material.008","pbrMetallicRoughness":{"baseColorFactor":[0.092955,0.026206,0.00608,1.0],"metallicFactor":0.5,"roughnessFactor":0.75},"emissiveFactor":[0.0,0.0,0.0],"doubleSided":true},{"name":"Material.006","pbrMetallicRoughness":{"baseColorFactor":[0.065933,0.049997,0.028055,1.0],"metallicFactor":0.5,"roughnessFactor":0.75},"emissiveFactor":[0.0,0.0,0.0],"doubleSided":true},{"name":"Material.007","pbrMetallicRoughness":{"baseColorFactor":[0.065933,0.049997,0.028055,1.0],"metallicFactor":0.5,"roughnessFactor":0.75},"emissiveFactor":[0.0,0.0,0.0],"doubleSided":true},{"name":"Material.005","pbrMetallicRoughness":{"baseColorFactor":[0.0,0.0,0.0,1.0],"metallicFactor":0.5,"roughnessFactor":0.75},"emissiveFactor":[0.0,0.0,0.0],"doubleSided":true},{"name":"Material.009","pbrMetallicRoughness":{"baseColorFactor":[0.0,0.0,0.0,1.0],"metallicFactor":0.5,"roughnessFactor":0.75},"emissiveFactor":[0.0,0.0,0.0],"doubleSided":true},{"name":"Material.010","pbrMetallicRoughness":{"baseColorFactor":[0.80049,0.001311,0.491959,1.0],"metallicFactor":0.5,"roughnessFactor":0.75},"emissiveFactor":[0.0,0.0,0.0],"doubleSided":true}],"meshes":[{"name":"Mesh0","primitives":[{"indices":3,"material":0,"attributes":{"POSITION":0,"NORMAL":1,"TEXCOORD_0":2}},{"indices":4,"material":1,"attributes":{"POSITION":0,"NORMAL":1,"TEXCOORD_0":2}},{"indices":5,"material":2,"attributes":{"POSITION":0,"NORMAL":1,"TEXCOORD_0":2}},{"indices":6,"material":3,"attributes":{"POSITION":0,"NORMAL":1,"TEXCOORD_0":2}},{"indices":7,"material":4,"attributes":{"POSITION":0,"NORMAL":1,"TEXCOORD_0":2}},{"indices":8,"material":5,"attributes":{"POSITION":0,"NORMAL":1,"TEXCOORD_0":2}},{"indices":9,"material":6,"attributes":{"POSITION":0,"NORMAL":1,"TEXCOORD_0":2}}]},{"name":"Mesh0","primitives":[{"indices":13,"material":7,"attributes":{"POSITION":10,"NORMAL":11,"TEXCOORD_0":12}}]},{"name":"Mesh0","primitives":[{"indices":17,"material":8,"attributes":{"POSITION":14,"NORMAL":15,"TEXCOORD_0":16}}]},{"name":"Mesh0","primitives":[{"indices":21,"material":9,"attributes":{"POSITION":18,"NORMAL":19,"TEXCOORD_0":20}}]}],"accessors":[{"bufferView":0,"componentType":5126,"count":5058,"type":"VEC3","min":[-1.0219079,-0.24428377,-0.0027154684],"max":[1.0013813,0.32851464,2.0708914]},{"bufferView":1,"componentType":5126,"count":5058,"type":"VEC3"},{"bufferView":2,"componentType":5126,"count":5058,"type":"VEC2"},{"bufferView":3,"componentType":5123,"count":22428,"type":"SCALAR"},{"bufferView":4,"componentType":5123,"count":14652,"type":"SCALAR"},{"bufferView":5,"componentType":5123,"count":5184,"type":"SCALAR"},{"bufferView":6,"componentType":5123,"count":16092,"type":"SCALAR"},{"bufferView":7,"componentType":5123,"count":4032,"type":"SCALAR"},{"bufferView":8,"componentType":5123,"count":8640,"type":"SCALAR"},{"bufferView":9,"componentType":5123,"count":9540,"type":"SCALAR"},{"bufferView":10,"componentType":5126,"count":79,"type":"VEC3","min":[-0.24157888,-0.09522958,1.8525097],"max":[0.08672416,0.32402062,1.9851881]},{"bufferView":11,"componentType":5126,"count":79,"type":"VEC3"},{"bufferView":12,"componentType":5126,"count":79,"type":"VEC2"},{"bufferView":13,"componentType":5123,"count":828,"type":"SCALAR"},{"bufferView":14,"componentType":5126,"count":85,"type":"VEC3","min":[0.08203998,-0.11667666,1.8260565],"max":[0.30471924,0.29355776,1.950869]},{"bufferView":15,"componentType":5126,"count":85,"type":"VEC3"},{"bufferView":16,"componentType":5126,"count":85,"type":"VEC2"},{"bufferView":17,"componentType":5123,"count":864,"type":"SCALAR"},{"bufferView":18,"componentType":5126,"count":196,"type":"VEC3","min":[-0.48472685,-0.18803668,0.6435657],"max":[-0.36522013,-0.005901754,0.7673215]},{"bufferView":19,"componentType":5126,"count":196,"type":"VEC3"},{"bufferView":20,"componentType":5126,"count":196,"type":"VEC2"},{"bufferView":21,"componentType":5123,"count":2268,"type":"SCALAR"}],"bufferViews":[{"target":34962,"buffer":0,"byteLength":60696,"byteOffset":0},{"target":34962,"buffer":0,"byteLength":60696,"byteOffset":60696},{"target":34962,"buffer":0,"byteLength":40464,"byteOffset":121392},{"target":34963,"buffer":0,"byteLength":44856,"byteOffset":161856},{"target":34963,"buffer":0,"byteLength":29304,"byteOffset":206712},{"target":34963,"buffer":0,"byteLength":10368,"byteOffset":236016},{"target":34963,"buffer":0,"byteLength":32184,"byteOffset":246384},{"target":34963,"buffer":0,"byteLength":8064,"byteOffset":278568},{"target":34963,"buffer":0,"byteLength":17280,"byteOffset":286632},{"target":34963,"buffer":0,"byteLength":19080,"byteOffset":303912},{"target":34962,"buffer":0,"byteLength":948,"byteOffset":322992},{"target":34962,"buffer":0,"byteLength":948,"byteOffset":323940},{"target":34962,"buffer":0,"byteLength":632,"byteOffset":324888},{"target":34963,"buffer":0,"byteLength":1656,"byteOffset":325520},{"target":34962,"buffer":0,"byteLength":1020,"byteOffset":327176},{"target":34962,"buffer":0,"byteLength":1020,"byteOffset":328196},{"target":34962,"buffer":0,"byteLength":680,"byteOffset":329216},{"target":34963,"buffer":0,"byteLength":1728,"byteOffset":329896},{"target":34962,"buffer":0,"byteLength":2352,"byteOffset":331624},{"target":34962,"buffer":0,"byteLength":2352,"byteOffset":333976},{"target":34962,"buffer":0,"byteLength":1568,"byteOffset":336328},{"target":34963,"buffer":0,"byteLength":4536,"byteOffset":337896}],"buffers":[{"byteLength":342432,"uri":"data:application/octet-stream;base64,"}]}