{
	"asset":{
		"generator":"Khronos glTF Blender I/O v4.3.47",
		"version":"2.0"
	},
	"scene":0,
	"scenes":[
		{
			"name":"Scene",
			"nodes":[
				0,
				1,
				2,
				37
			]
		}
	],
	"nodes":[
		{
			"mesh":0,
			"name":"Cube.001",
			"rotation":[
				0,
				-0.7898767590522766,
				0,
				0.6132655739784241
			],
			"scale":[
				0.16018159687519073,
				0.16018159687519073,
				0.16018159687519073
			],
			"translation":[
				0.033695194870233536,
				0.5898669958114624,
				-0.035472042858600616
			]
		},
		{
			"mesh":1,
			"name":"yeux 1",
			"rotation":[
				0,
				-0.7898767590522766,
				0,
				0.6132656335830688
			],
			"scale":[
				0.09063082933425903,
				0.09063083678483963,
				0.09063082933425903
			],
			"translation":[
				0.014176692813634872,
				0.5898669958114624,
				0.008329108357429504
			]
		},
		{
			"mesh":2,
			"name":"yeux 1.001",
			"rotation":[
				0,
				-0.7898767590522766,
				0,
				0.6132656335830688
			],
			"scale":[
				0.09063082933425903,
				0.09063083678483963,
				0.09063082933425903
			],
			"translation":[
				0.015527875162661076,
				0.5898669958114624,
				0.003046702593564987
			]
		},
		{
			"name":"spine",
			"rotation":[
				0.04749874025583267,
				-0.05959019437432289,
				0.06253628432750702,
				0.9951291680335999
			],
			"scale":[
				0.9999999403953552,
				0.9999998807907104,
				0.9999999403953552
			],
			"translation":[
				-7.450580596923828e-09,
				0.11872203648090363,
				-2.2351741790771484e-08
			]
		},
		{
			"children":[
				3
			],
			"name":"spine.001",
			"rotation":[
				-0.024166174232959747,
				-0.8586251735687256,
				0.05279841646552086,
				0.5093046426773071
			],
			"scale":[
				0.9999999403953552,
				0.9999998211860657,
				1
			],
			"translation":[
				-5.3318217396736145e-08,
				0.14432811737060547,
				-1.4901161193847656e-08
			]
		},
		{
			"children":[
				4
			],
			"name":"spine.002",
			"rotation":[
				-0.1264040321111679,
				0.06398061662912369,
				-0.2190486490726471,
				0.9653736352920532
			],
			"scale":[
				1,
				1,
				0.9999998211860657
			],
			"translation":[
				-3.458990249782801e-08,
				0.13695190846920013,
				-1.6763806343078613e-08
			]
		},
		{
			"children":[
				5
			],
			"name":"spine.003",
			"rotation":[
				0.6202442049980164,
				0.44264358282089233,
				0.11277888715267181,
				0.6376870274543762
			],
			"scale":[
				0.9999998211860657,
				0.9999999403953552,
				0.9999999403953552
			],
			"translation":[
				2.2351741790771484e-08,
				4.284083843231201e-08,
				7.450580596923828e-09
			]
		},
		{
			"name":"spine.011",
			"rotation":[
				-0.1261245608329773,
				0.03250611945986748,
				0.02712290734052658,
				0.991110622882843
			],
			"scale":[
				0.9999999403953552,
				1,
				0.9999998211860657
			],
			"translation":[
				1.1175870895385742e-08,
				0.24281656742095947,
				5.390029400587082e-08
			]
		},
		{
			"children":[
				7
			],
			"name":"spine.010",
			"rotation":[
				-0.05987666919827461,
				0.1486182063817978,
				0.0004492610751185566,
				0.9870801568031311
			],
			"scale":[
				1.0000001192092896,
				1.0000001192092896,
				1
			],
			"translation":[
				7.450580596923828e-09,
				0.1877274215221405,
				-6.51925802230835e-09
			]
		},
		{
			"children":[
				8
			],
			"name":"spine.009",
			"rotation":[
				0.014367491938173771,
				-0.1845754235982895,
				0.020376058295369148,
				0.9825021028518677
			],
			"scale":[
				0.9999998807907104,
				0.9999997615814209,
				0.9999999403953552
			],
			"translation":[
				3.725290298461914e-09,
				0.240711972117424,
				2.7939677238464355e-08
			]
		},
		{
			"name":"front_toe.L",
			"rotation":[
				0.003992664627730846,
				-0.8613286018371582,
				0.507755696773529,
				0.016770483925938606
			],
			"scale":[
				1,
				0.9999999403953552,
				0.9999998807907104
			],
			"translation":[
				7.508788257837296e-09,
				0.166987806558609,
				6.984919309616089e-10
			]
		},
		{
			"children":[
				10
			],
			"name":"front_foot.L",
			"rotation":[
				0.07050561904907227,
				0.013193182647228241,
				-0.006133082788437605,
				0.9974052906036377
			],
			"scale":[
				1.0000001192092896,
				0.9999999403953552,
				1
			],
			"translation":[
				-1.1350493878126144e-09,
				0.23769307136535645,
				1.0943040251731873e-08
			]
		},
		{
			"children":[
				11
			],
			"name":"front_shin.L",
			"rotation":[
				-0.19727027416229248,
				-0.01858014054596424,
				0.00471164844930172,
				0.9801617860794067
			],
			"scale":[
				0.9999998807907104,
				1,
				1
			],
			"translation":[
				-1.605620525424456e-09,
				0.2195582389831543,
				1.234002411365509e-08
			]
		},
		{
			"children":[
				12
			],
			"name":"front_thigh.L",
			"rotation":[
				0.49219271540641785,
				-0.0707039013504982,
				0.06111229956150055,
				0.865455150604248
			],
			"scale":[
				1,
				1,
				1.0000001192092896
			],
			"translation":[
				-0.012492386624217033,
				0.18897795677185059,
				0.061403706669807434
			]
		},
		{
			"children":[
				13
			],
			"name":"shoulder.L",
			"rotation":[
				0.8738399744033813,
				0.0645475909113884,
				0.11669151484966278,
				0.46756860613822937
			],
			"scale":[
				1,
				0.9999998807907104,
				0.9999998211860657
			],
			"translation":[
				0.10246482491493225,
				0.15801285207271576,
				0.03433273732662201
			]
		},
		{
			"name":"front_toe.R",
			"rotation":[
				-0.011451288126409054,
				0.7525786757469177,
				-0.6583869457244873,
				0.004570703022181988
			],
			"scale":[
				1,
				1,
				0.9999998211860657
			],
			"translation":[
				-1.210719347000122e-08,
				0.274441659450531,
				4.0978193283081055e-08
			]
		},
		{
			"children":[
				15
			],
			"name":"front_foot.R",
			"rotation":[
				0.44409024715423584,
				-0.039040129631757736,
				-0.03803112357854843,
				0.8943228721618652
			],
			"scale":[
				0.9999999403953552,
				0.9999998211860657,
				0.9999998211860657
			],
			"translation":[
				-1.6298145055770874e-08,
				0.16873779892921448,
				6.58910721540451e-08
			]
		},
		{
			"children":[
				16
			],
			"name":"front_shin.R",
			"rotation":[
				-0.47365501523017883,
				0.030096834525465965,
				0.005498673766851425,
				0.8801788687705994
			],
			"scale":[
				1.0000001192092896,
				1.0000001192092896,
				1.0000001192092896
			],
			"translation":[
				-5.587935447692871e-09,
				0.2088301181793213,
				-2.7939677238464355e-09
			]
		},
		{
			"children":[
				17
			],
			"name":"front_thigh.R",
			"rotation":[
				0.4868372082710266,
				0.04635651409626007,
				-0.14670999348163605,
				0.8598353266716003
			],
			"scale":[
				0.9999998807907104,
				0.9999998211860657,
				0.9999998807907104
			],
			"translation":[
				-0.0010536275804042816,
				0.21136367321014404,
				0.05919620767235756
			]
		},
		{
			"children":[
				18
			],
			"name":"shoulder.R",
			"rotation":[
				0.8835210800170898,
				-0.14262841641902924,
				-0.01106783002614975,
				0.4460102617740631
			],
			"scale":[
				0.9999998807907104,
				0.9999998807907104,
				0.9999998807907104
			],
			"translation":[
				-0.098955437541008,
				0.16259190440177917,
				0.08374344557523727
			]
		},
		{
			"name":"breast.L",
			"rotation":[
				0.8293535113334656,
				0.0009452914819121361,
				0.04490150883793831,
				0.5569162964820862
			],
			"scale":[
				0.9999998211860657,
				0.9999998807907104,
				0.9999997019767761
			],
			"translation":[
				0.034079186618328094,
				-0.021984891965985298,
				-0.006553366780281067
			]
		},
		{
			"name":"breast.R",
			"rotation":[
				0.8293534517288208,
				0.0009452960803173482,
				0.04490150138735771,
				0.556916356086731
			],
			"scale":[
				0.9999998211860657,
				0.9999997615814209,
				0.9999997019767761
			],
			"translation":[
				-0.03364652395248413,
				-0.02549242414534092,
				-0.011546287685632706
			]
		},
		{
			"children":[
				9,
				14,
				19,
				20,
				21
			],
			"name":"spine.008",
			"rotation":[
				-0.40081390738487244,
				0.023303527384996414,
				-0.03839237987995148,
				0.9150580167770386
			],
			"scale":[
				0.9999998807907104,
				1,
				0.9999998211860657
			],
			"translation":[
				1.873331711976789e-09,
				0.13937272131443024,
				1.525040715932846e-08
			]
		},
		{
			"children":[
				22
			],
			"name":"spine.007",
			"rotation":[
				-0.08649609237909317,
				-1.166808800689978e-07,
				-1.31575177420018e-07,
				0.996252179145813
			],
			"scale":[
				0.9999999403953552,
				0.9999998807907104,
				0.9999999403953552
			],
			"translation":[
				4.541334419627674e-09,
				0.15134525299072266,
				-8.08213371783495e-08
			]
		},
		{
			"children":[
				23
			],
			"name":"spine.006",
			"rotation":[
				-0.07412051409482956,
				-0.0012373699573799968,
				0.04446854442358017,
				0.9962565898895264
			],
			"scale":[
				1.0000001192092896,
				1,
				0.9999999403953552
			],
			"translation":[
				-4.656612873077393e-10,
				0.13360337913036346,
				-8.786446414887905e-08
			]
		},
		{
			"name":"pelvis.L",
			"rotation":[
				-0.2642548978328705,
				-0.8248434066772461,
				0.3087288737297058,
				0.3930511474609375
			],
			"scale":[
				1,
				0.9999999403953552,
				1
			],
			"translation":[
				0.007812251802533865,
				-0.005799677222967148,
				0.024676566943526268
			]
		},
		{
			"name":"pelvis.R",
			"rotation":[
				-0.3659164309501648,
				0.8034875988960266,
				-0.22588196396827698,
				0.41169196367263794
			],
			"scale":[
				0.9999999403953552,
				0.9999997615814209,
				1
			],
			"translation":[
				0.007812251802533865,
				-0.005799677222967148,
				0.024676566943526268
			]
		},
		{
			"name":"toe.L",
			"rotation":[
				0.031426046043634415,
				-0.9058195352554321,
				0.41573047637939453,
				0.07531005889177322
			],
			"scale":[
				0.9999998807907104,
				0.9999998211860657,
				1
			],
			"translation":[
				-4.889443516731262e-09,
				0.23687733709812164,
				1.3737007975578308e-08
			]
		},
		{
			"children":[
				27
			],
			"name":"foot.L",
			"rotation":[
				-0.3574237823486328,
				-0.00574309378862381,
				0.031942129135131836,
				0.933378279209137
			],
			"scale":[
				1,
				0.9999999403953552,
				1.0000001192092896
			],
			"translation":[
				-1.6298145055770874e-09,
				0.21628013253211975,
				-3.096647560596466e-08
			]
		},
		{
			"children":[
				28
			],
			"name":"shin.L",
			"rotation":[
				0.37253835797309875,
				0.01960933767259121,
				0.013182047754526138,
				0.9277159571647644
			],
			"scale":[
				0.9999999403953552,
				1,
				1
			],
			"translation":[
				1.30385160446167e-08,
				0.2347082644701004,
				-2.1653249859809875e-08
			]
		},
		{
			"children":[
				29
			],
			"name":"thigh.L",
			"rotation":[
				0.6292432546615601,
				0.04980720207095146,
				0.008441461250185966,
				0.7755649089813232
			],
			"scale":[
				1.0000001192092896,
				1,
				0.9999999403953552
			],
			"translation":[
				0.13827729225158691,
				-0.013626549392938614,
				-0.05873420089483261
			]
		},
		{
			"name":"toe.R",
			"rotation":[
				-0.19889461994171143,
				0.8521435260772705,
				-0.3872958719730377,
				0.29033467173576355
			],
			"scale":[
				1.0000001192092896,
				1,
				1.0000001192092896
			],
			"translation":[
				-5.3551048040390015e-09,
				0.1740640103816986,
				-1.862645149230957e-08
			]
		},
		{
			"children":[
				31
			],
			"name":"foot.R",
			"rotation":[
				-0.07761532813310623,
				-0.014769517816603184,
				0.01005608681589365,
				0.996823251247406
			],
			"scale":[
				1,
				0.9999999403953552,
				0.9999998211860657
			],
			"translation":[
				5.587935447692871e-09,
				0.1828666627407074,
				9.313225746154785e-09
			]
		},
		{
			"children":[
				32
			],
			"name":"shin.R",
			"rotation":[
				0.35525813698768616,
				0.00025049515534192324,
				-0.03312550112605095,
				0.9341810941696167
			],
			"scale":[
				1.0000001192092896,
				1.0000001192092896,
				1.0000001192092896
			],
			"translation":[
				-3.818422555923462e-08,
				0.28338369727134705,
				-1.3969838619232178e-09
			]
		},
		{
			"children":[
				33
			],
			"name":"thigh.R",
			"rotation":[
				0.5104812383651733,
				0.012067582458257675,
				0.046572957187891006,
				0.8585419058799744
			],
			"scale":[
				1.0000001192092896,
				1,
				0.9999998807907104
			],
			"translation":[
				-0.11053410172462463,
				-0.03580569103360176,
				-0.057703860104084015
			]
		},
		{
			"children":[
				24,
				25,
				26,
				30,
				34
			],
			"name":"spine.005",
			"rotation":[
				-0.33510202169418335,
				-0.14089278876781464,
				-0.13739807903766632,
				0.9213998317718506
			],
			"scale":[
				0.9999997615814209,
				1,
				1
			],
			"translation":[
				7.450580596923828e-09,
				0.135005921125412,
				-1.4901161193847656e-08
			]
		},
		{
			"children":[
				6,
				35
			],
			"name":"spine.004",
			"rotation":[
				0.8859111666679382,
				0.022885547950863838,
				0.15573380887508392,
				0.4363309144973755
			],
			"scale":[
				1.0000001192092896,
				1,
				0.9999997019767761
			],
			"translation":[
				0.0010109711438417435,
				0.7645314931869507,
				-0.4185521900653839
			]
		},
		{
			"children":[
				36
			],
			"name":"metarig",
			"rotation":[
				0,
				-0.6968727707862854,
				0,
				0.7171947956085205
			],
			"scale":[
				0.799728274345398,
				0.799728274345398,
				0.799728274345398
			],
			"translation":[
				-0.010439678095281124,
				-0.004019796848297119,
				-0.05413537099957466
			]
		}
	],
	"materials":[
		{
			"doubleSided":true,
			"name":"Material.001",
			"pbrMetallicRoughness":{
				"baseColorTexture":{
					"index":0
				},
				"metallicFactor":0
			}
		},
		{
			"doubleSided":true,
			"name":"Material.002",
			"pbrMetallicRoughness":{
				"baseColorFactor":[
					0.05600550025701523,
					0.008209777064621449,
					0.003533313050866127,
					1
				],
				"metallicFactor":0,
				"roughnessFactor":0.7293577790260315
			}
		}
	],
	"meshes":[
		{
			"name":"Cube.001",
			"primitives":[
				{
					"attributes":{
						"POSITION":0,
						"NORMAL":1,
						"TEXCOORD_0":2
					},
					"indices":3,
					"material":0
				}
			]
		},
		{
			"name":"Sphere",
			"primitives":[
				{
					"attributes":{
						"POSITION":4,
						"NORMAL":5,
						"TEXCOORD_0":6
					},
					"indices":7,
					"material":1
				}
			]
		},
		{
			"name":"Sphere.002",
			"primitives":[
				{
					"attributes":{
						"POSITION":8,
						"NORMAL":9,
						"TEXCOORD_0":10
					},
					"indices":7,
					"material":1
				}
			]
		}
	],
	"textures":[
		{
			"sampler":0,
			"source":0
		}
	],
	"images":[
		{
			"mimeType":"image/png",
			"name":"texture sophie",
			"uri":"texture%20sophie.png"
		}
	],
	"skins":[
		{
			"inverseBindMatrices":11,
			"joints":[
				36,
				6,
				5,
				4,
				3,
				35,
				24,
				23,
				22,
				9,
				8,
				7,
				14,
				13,
				12,
				11,
				10,
				19,
				18,
				17,
				16,
				15,
				20,
				21,
				25,
				26,
				30,
				29,
				28,
				27,
				34,
				33,
				32,
				31
			],
			"name":"metarig"
		}
	],
	"accessors":[
		{
			"bufferView":0,
			"componentType":5126,
			"count":2505,
			"max":[
				1.8461532592773438,
				5.697143077850342,
				2.9783267974853516
			],
			"min":[
				-0.9123883843421936,
				-3.689574718475342,
				-2.2018802165985107
			],
			"type":"VEC3"
		},
		{
			"bufferView":1,
			"componentType":5126,
			"count":2505,
			"type":"VEC3"
		},
		{
			"bufferView":2,
			"componentType":5126,
			"count":2505,
			"type":"VEC2"
		},
		{
			"bufferView":3,
			"componentType":5123,
			"count":12444,
			"type":"SCALAR"
		},
		{
			"bufferView":4,
			"componentType":5126,
			"count":287,
			"max":[
				2.0602455139160156,
				8.059003829956055,
				2.7969937324523926
			],
			"min":[
				1.6475062370300293,
				7.482100009918213,
				2.384253978729248
			],
			"type":"VEC3"
		},
		{
			"bufferView":5,
			"componentType":5126,
			"count":287,
			"type":"VEC3"
		},
		{
			"bufferView":6,
			"componentType":5126,
			"count":287,
			"type":"VEC2"
		},
		{
			"bufferView":7,
			"componentType":5123,
			"count":1440,
			"type":"SCALAR"
		},
		{
			"bufferView":8,
			"componentType":5126,
			"count":287,
			"max":[
				2.076417922973633,
				8.054557800292969,
				4.1080546379089355
			],
			"min":[
				1.6636786460876465,
				7.477653980255127,
				3.695314884185791
			],
			"type":"VEC3"
		},
		{
			"bufferView":9,
			"componentType":5126,
			"count":287,
			"type":"VEC3"
		},
		{
			"bufferView":10,
			"componentType":5126,
			"count":287,
			"type":"VEC2"
		},
		{
			"bufferView":11,
			"componentType":5126,
			"count":34,
			"type":"MAT4"
		}
	],
	"bufferViews":[
		{
			"buffer":0,
			"byteLength":30060,
			"byteOffset":0,
			"target":34962
		},
		{
			"buffer":0,
			"byteLength":30060,
			"byteOffset":30060,
			"target":34962
		},
		{
			"buffer":0,
			"byteLength":20040,
			"byteOffset":60120,
			"target":34962
		},
		{
			"buffer":0,
			"byteLength":24888,
			"byteOffset":80160,
			"target":34963
		},
		{
			"buffer":0,
			"byteLength":3444,
			"byteOffset":105048,
			"target":34962
		},
		{
			"buffer":0,
			"byteLength":3444,
			"byteOffset":108492,
			"target":34962
		},
		{
			"buffer":0,
			"byteLength":2296,
			"byteOffset":111936,
			"target":34962
		},
		{
			"buffer":0,
			"byteLength":2880,
			"byteOffset":114232,
			"target":34963
		},
		{
			"buffer":0,
			"byteLength":3444,
			"byteOffset":117112,
			"target":34962
		},
		{
			"buffer":0,
			"byteLength":3444,
			"byteOffset":120556,
			"target":34962
		},
		{
			"buffer":0,
			"byteLength":2296,
			"byteOffset":124000,
			"target":34962
		},
		{
			"buffer":0,
			"byteLength":2176,
			"byteOffset":126296
		}
	],
	"samplers":[
		{
			"magFilter":9729,
			"minFilter":9987
		}
	],
	"buffers":[
		{
			"byteLength":128472,
			"uri":"sophie_girafe_v1.bin"
		}
	]
}
